<?xml version="1.0" encoding="UTF-8"?>
<svg xmlns="http://www.w3.org/2000/svg"
     xmlns:xlink="http://www.w3.org/1999/xlink"
     version="1.1"
     viewBox="0 0 200 200">


  <!-- Background -->
  <rect fill="#226" x="0" y="0" width="200" height="200"/>

  <defs>
    <g id="pacman">
      <path fill="#EE4" d="M 100 100 h 60 a 60 60, 0 0 0, -120 0">
        <animateTransform attributeName="transform"
                          type="rotate"
                          dur="0.3s"
                          keyTimes="0; 0.5; 1"
                          repeatCount="indefinite"
                          values="0 100 100; -45 100 100; 0 100 100"/>
      </path>
      <path fill="#EE4" d="M 100 100 h 60 a 60 60, 0 0 1, -120 0">
        <animateTransform attributeName="transform"
                          type="rotate"
                          dur="0.3s"
                          keyTimes="0; 0.5; 1"
                          repeatCount="indefinite"
                          values="0 100 100; 45 100 100; 0 100 100"/>
      </path>
    </g>
    <g id="enemy">
      <path fill="#C11"
            d="M 50 100
               a 50 50, 0 0 1, 100 0
               v 50
               l -20 -20
               l -15  18
               l -15 -18
               l -15  18
               l -15 -18
               l -20  20
               Z"/>
      <path fill="#FFF"
            d="M 80 80
               a 8 8, 0 0 1, 0  16
               a 8 8, 0 0 1, 0 -16
               m  40  0
               a 8 8, 0 0 1, 0  16
               a 8 8, 0 0 1, 0 -16"/>
    </g>
    <g id="eye">
      <path fill="#000"
            d="M 82 82
               a 6 6, 0 0 1, 0  12
               a 6 6, 0 0 1, 0 -12
               m 40 0
               a 6 6, 0 0 1, 0  12
               a 6 6, 0 0 1, 0 -12"/>
    </g>
  </defs>

  <use xlink:href="#pacman">
    <animateTransform attributeName="transform"
                      type="translate"
                      dur="3s"
                      keyTimes="0; 0.45; 0.95; 1"
                      repeatCount="indefinite"
                      values="-200; -200; 200; 200"/>
  </use>
  <use xlink:href="#enemy">
    <animateTransform attributeName="transform"
                      type="translate"
                      dur="3s"
                      keyTimes="0; 0.25; 0.5; 0.75; 1"
                      repeatCount="indefinite"
                      values="-200; 0; 0; 200; 200"/>
  </use>
  <use xlink:href="#eye">
    <animateTransform attributeName="transform"
                      type="translate"
                      dur="3s"
                      keyTimes="0; 0.25; 0.3; 0.45; 0.5; 0.75; 1"
                      repeatCount="indefinite"
                      values="-200; 0; -4; -4; 0; 200; 200"/>
  </use>


</svg>
