<?xml version="1.0" encoding="UTF-8"?>
<svg xmlns="http://www.w3.org/2000/svg"
     xmlns:xlink="http://www.w3.org/1999/xlink"
     viewBox="0 0 1000 1000">
  
  
  <rect fill="#C5E" x="0" y="0" width="1000" height="1000"/>
  
  <defs>
    <g id="battery">
      <path fill="#FF0"
            d="M  8 6 v -6 a 1.5 1.5, 0 0 1, 3 0 v 6 Z
               M 17 6 v -6 a 1.5 1.5, 0 0 1, 3 0 v 6 Z"/>
      <path fill="#FFF"
            d="M   5 4
               h  18
               l   5 5
               v  83
               l  -5 5
               h -18
               l  -5 -5
               v -83
               l   5 -5
               Z"/>
      <path fill="#333"
            d="M  10 6
               h   8
               l   3 3
               v  75
               l  -3 3
               h  -8
               l  -3 -3
               v -75
               l   3 -3
               Z"/>
      <path fill="#888"
            d="M 21 12 h 7 l 1 1 v 2 l -1 1 h -7 l -1 -1 v -2 Z
               m  0 11 h 7 l 1 1 v 2 l -1 1 h -7 l -1 -1 v -2 Z
               m  0 11 h 7 l 1 1 v 2 l -1 1 h -7 l -1 -1 v -2 Z
               m  0 11 h 7 l 1 1 v 2 l -1 1 h -7 l -1 -1 v -2 Z
               m  0 11 h 7 l 1 1 v 2 l -1 1 h -7 l -1 -1 v -2 Z
               m  0 11 h 7 l 1 1 v 2 l -1 1 h -7 l -1 -1 v -2 Z
               m  0 11 h 7 l 1 1 v 2 l -1 1 h -7 l -1 -1 v -2 Z"/>
      <path fill="#222"
            d="M   5   4
               v  70
               a 1.5 1.5, 0 0 1, -3 0
               v -67
               Z"/>
      <path fill="#222"
            d="M   6  91
               h  16
               a 1.5 1.5, 0 0 1, 0  3
               h -16
               a 1.5 1.5, 0 0 1, 0 -3
               Z"/>
      <path fill="#0FF"
            d="M 13  11
               a 1 1, 0 0 1,  2 0
               v 71
               a 1 1, 0 0 1, -2 0
               Z"/>
    </g>
    <g id="reload">
      <path fill="#FFF"
            d="M 432 70
               h 58
               l 20 -20
               h 248
               a 2 2, 0 0 1, 2 2
               v 18
               l -30 30
               h -170
               l -15 15
               v 68
               a 2 2, 0 0 1, -2 2
               h -18
               l -95 -80
               v -33
               a 2 2, 0 0 1, 2 -2
               Z

               M 447 90
               a 6 6, 0 0 0, 0 12
               h 30
               a 6 6, 0 0 0, 0 -12
               h -30"/>
      <path fill="#4EE"
            d="M  513 56
               h  236
               l    6 10
               l  -28 28
               h -236
               l   -6 -10
               Z"/>
      <path fill="#48D"
            d="M 531 107
               l 8 8
               v 65
               h -11
               l -74 -62
               v -11
               Z"/>
      <circle fill="#CCC" cx="542" cy="104" r="5"/>
    </g>
    <g id="rifle">
      <g>
        <path fill="#DDD"
              d="M 402 134
                 h 35
                 v 5
                 a 5 5, 0 0 0, -5 5
                 v 15
                 a 2 2, 0 0 1, -2 2
                 h -28
                 Z"/>
        <path fill="#000"
              d="M 340 70
                 L 350 55
                 H 950
                 V 120
                 c -20 40, 20 55, 0 60
                 H 410
                 C 380 180, 360 260, 330 260
                 H 290
                 C 280 260, 280 240, 270 240
                 H  80
                 C  70 230,  50 210,  30 210
                 C  25 209,  16 200,  15 195
                 C  25 160,  25 120,  15  85
                 C  16  80,  25  71,  30  70
                 H 340
                 Z

                 M 300 150
                 c  -5  15,  47  59, 60 20
                 s -55 -35, -60 -20
                 Z

                 M 455 140
                 h -45
                 a 2 2, 0 0 0, -2 2
                 v 25
                 a 2 2, 0 0 0, 2 2
                 h 50
                 a 2 2, 0 0 0, 2 -2
                 v -20
                 l -7 -7
                 Z"/>
        <circle fill="#A00" cx="365" cy="80" r="10"/>
        <path fill="#0FF"
              d="M 646 124
                 h 300
                 l -7 7
                 h -300
                 Z"/>
        <path fill="#0FF"
              d="M 643 134 h 8 l 60 42 h -8 Z
                 m  15   0 h 8 l 60 42 h -8 Z
                 m  15   0 h 8 l 60 42 h -8 Z
                 m  15   0 h 8 l 60 42 h -8 Z
                 m  15   0 h 8 l 60 42 h -8 Z
                 m  15   0 h 8 l 60 42 h -8 Z
                 m  15   0 h 8 l 60 42 h -8 Z
                 m  15   0 h 8 l 60 42 h -8 Z
                 m  15   0 h 8 l 60 42 h -8 Z
                 m  15   0 h 8 l 60 42 h -8 Z
                 m  15   0 h 8 l 60 42 h -8 Z
                 m  15   0 h 8 l 60 42 h -8 Z
                 m  15   0 h 8 l 60 42 h -8 Z
                 m  15   0 h 8 l 60 42 h -8 Z
                 m  15   0 h 8 l 60 42 h -8 Z
                 m  15   0 h 8 l 60 42 h -8 Z
                 m  15   0 h 8 l 60 42 h -8 Z
                 m  15   0 h 36 a 4 4, 0 0 1, 4 4 v 24 Z"/>
        <g>
          <path fill="#FFF"
                d="M 253 55
                   A  17 17, 0 0 1, 270 70
                   H 262
                   A   2  2, 0 0 0, 260 72
                   V  88
                   A   2  2, 0 0 1, 258 90
                   H 250
                   L 240 80
                   H 150
                   L 140 90
                   H 130
                   A  17 17, 0 0 1, 130 55
                   H 200
                   Z"/>
          <circle fill="#AAA" cx="133" cy="83" r="2"/>
          <circle fill="#AAA" cx="253" cy="83" r="2"/>
          <path fill="#BBB"
                d="M 160 80
                   A 5 5, 0 0 1, 165 75
                   H 225
                   A 5 5, 0 0 1, 230 80
                   Z"/>
        </g>
      </g><!-- stock -->
      <g>
        <use xlink:href="#battery" transform="translate( 90 110)"/>
        <use xlink:href="#battery" transform="translate(130 110)"/>
        <use xlink:href="#battery" transform="translate(170 110)"/>
        <use xlink:href="#battery" transform="translate(210 110)"/>
        <use xlink:href="#battery" transform="translate(250 110)"/>
      </g><!-- Batteries -->
      <g>
        <path fill="#FFF"
              d="M 360 55
                 v -8
                 l 8 -16
                 h 10
                 v -8
                 a 12 12, 40 0 1, 12 -12
                 h 85
                 v 20
                 l 10 16
                 v 8
                 Z"/>
      </g><!-- Scope -->
      
      <circle fill="#DDD" cx="447" cy="96" r="5"/>
      
      <g>
        <path fill="#FFF"
              d="M 767 50
                 h 218
                 l -35 70
                 h -306
                 l -12 12
                 l 55 40
                 v 11
                 a 2 2, 0 0 1, -2 2
                 h -133
                 a 2 2, 0 0 1, -2 -2
                 v -65
                 l 13 -13
                 h 170
                 l 32 -32
                 v -21
                 a 2 2, 0 0 1, 2 -2
                 Z"/>
      </g><!-- Barrel -->
    </g>
  </defs>
  
  <!-- Beam -->
  <line stroke="#FF0" x1="800" x2="1100" y1="415" y2="415">
    <animate attributeName="stroke-width"
             dur="5s"
             keyTimes="0; 0.2; 0.27; 0.3; 1"
             repeatCount="indefinite"
             values="0; 5; 40; 0; 0"/>
  </line>
  
  <!-- Battery out -->
  <use xlink:href="#battery" transform="rotate(-90 650 100) translate(330 80)">
    <animateTransform attributeName="transform"
                      type="rotate"
                      dur="5s"
                      keyTimes="0; 0.55; 0.6; 0.95; 1"
                      repeatCount="indefinite"
                      values="0 -6 -183; 0 -6 -183; -10 -6 -183; -10 -6 -183; 0 -6 -183"
                      additive="sum"/>
    <animateTransform attributeName="transform"
                      type="translate"
                      calcMode="spline"
                      dur="5s"
                      keyTimes="0; 0.55; 0.6; 0.8; 1"
                      keySplines="0 0 1 1; 0 0 1 1; 0 0.3 0.7 1; 0 0 1 1"
                      repeatCount="indefinite"
                      values="0 0; 0 0; 0 -30; 0 700; 0 700"
                      additive="sum"/>
    <animateTransform attributeName="transform"
                      type="translate"
                      calcMode="spline"
                      dur="5s"
                      keyTimes="0; 0.6; 1"
                      keySplines="0 0 1 1; 0.3 0 1 0.7"
                      repeatCount="indefinite"
                      values="0 0; 0 0; -800 0"
                      additive="sum"/>
  </use>
  
  <!-- Rifle -->
  <use xlink:href="#rifle" transform="translate(0 330)">
    <animateTransform attributeName="transform"
                      type="rotate"
                      dur="5s"
                      keyTimes="0; 0.27; 0.3; 0.55; 1"
                      repeatCount="indefinite"
                      values="0 150 160; 0 150 160; -2 150 160; 0 150 160; 0 150 160"
                      additive="sum"/>
    <animateTransform attributeName="transform"
                      type="translate"
                      dur="5s"
                      keyTimes="0; 0.27; 0.3; 0.55; 1"
                      repeatCount="indefinite"
                      values="0 0; 0 0; -20 0; 0 0; 0 0"
                      additive="sum"/>
  </use>
  
  <!-- Reload -->
  <use xlink:href="#reload" transform="translate(0 330)">
    <animateTransform attributeName="transform"
                      type="rotate"
                      dur="5s"
                      keyTimes="0; 0.27; 0.3; 0.55; 
                                0.551; 0.6; 0.95; 1"
                      repeatCount="indefinite"
                      values="0 150 160;   0 150 160;  -2 150 160; 0 150 160;
                              0 447  96; -10 447  96; -10 447  96; 0 447  96"
                      additive="sum"/>
    <animateTransform attributeName="transform"
                      type="translate"
                      dur="5s"
                      keyTimes="0; 0.27; 0.3; 0.55;
                                0.6; 0.95; 1"
                      repeatCount="indefinite"
                      values="  0 0;   0 0; -20 0; 0 0;
                              -30 0; -30 0; 0 0"
                      additive="sum"/>
  </use>
  
  
</svg>