<?xml version="1.0" encoding="UTF-8"?>
<svg xmlns="http://www.w3.org/2000/svg"
     xmlns:xlink="http://www.w3.org/1999/xlink"
     version="1.1"
     viewBox="0 0 200 200">
  
  
  <!-- Background -->
  <rect fill="#A4A" x="0" y="0" width="200" height="200"/>
  
  <!-- Frame -->
  <path fill="#FFF"
        d="M 50 88
           a 12 12, 0 0 0, 0  24
           h 100
           a 12 12, 0 0 0, 0 -24
           Z
           m 0 22
           a 10 10, 0 0 1, 0 -20
           h 100
           a 10 10, 0 0 1, 0  20
           Z"/>
  
  <defs>
    <!-- Area of the bar -->
    <mask id="mask">
      <path fill="#FFF"
            d="M 50 92
               a 8 8, 0 0 0, 0 16
               h 100
               a 8 8, 0 0 0, 0 -16
               Z"/>
    </mask>
    <!-- The bar -->
    <g id="paramater">
      <rect fill="#FFF" x="0" y="0" width="200" height="200"/>
      <path fill="#DDD"
            d="M 20 70 h 10 l -60 60 h -10 Z
               m 20 0 h 10 l -60 60 h -10 Z
               m 20 0 h 10 l -60 60 h -10 Z
               m 20 0 h 10 l -60 60 h -10 Z
               m 20 0 h 10 l -60 60 h -10 Z
               m 20 0 h 10 l -60 60 h -10 Z
               m 20 0 h 10 l -60 60 h -10 Z
               m 20 0 h 10 l -60 60 h -10 Z
               m 20 0 h 10 l -60 60 h -10 Z
               m 20 0 h 10 l -60 60 h -10 Z">
        <animateTransform attributeName="transform"
                          type="translate"
                          dur="0.4s"
                          values="0; 20"
                          repeatCount="indefinite"/>
      </path>
    </g>
    <!-- Visual area -->
    <clipPath id="clip-path">
      <rect x="42" y="0" width="116" height="200">
        <animateTransform attributeName="transform"
                          type="translate"
                          dur="5s"
                          keyTimes="0; 0.7; 1"
                          values="-116; 0; 0"
                          repeatCount="indefinite"/>
      </rect>
    </clipPath>
  </defs>
  
  <use xlink:href="#paramater" mask="url(#mask)" clip-path="url(#clip-path)"/>
  <path fill="#000" fill-opacity="0.4" mask="url(#mask)" clip-path="url(#clip-path)"
        d="M 72 108
           q -30 0, -30 -10
           v 10
           Z"/>
  
  
</svg>